<svg width="239" height="141" viewBox="0 0 239 141" fill="none" xmlns="http://www.w3.org/2000/svg">
<g clip-path="url(#clip0_44_103)">
<rect width="239" height="141" fill="white"/>
<rect x="60" width="60" height="82" fill="#D599FB"/>
<rect x="120" y="141" width="59" height="119" transform="rotate(-90 120 141)" fill="#FF6131"/>
<rect y="141" width="59" height="120" transform="rotate(-90 0 141)" fill="#FFBE98"/>
<rect width="60" height="82" fill="#FFFC56"/>
<rect x="120" width="60" height="82" fill="#F5F5F5"/>
<rect x="179" width="60" height="82" fill="#060D0F"/>
<path d="M5.11816 70.0488C4.9196 70.0488 4.74219 70.013 4.58594 69.9414C4.43132 69.8682 4.30924 69.764 4.21973 69.6289C4.13184 69.4938 4.08789 69.3327 4.08789 69.1455V69.0625H4.52246V69.1455C4.52246 69.248 4.54769 69.3384 4.59814 69.4165C4.65023 69.493 4.72103 69.5524 4.81055 69.5947C4.90007 69.637 5.0026 69.6582 5.11816 69.6582C5.24512 69.6582 5.35254 69.6322 5.44043 69.5801C5.52995 69.5264 5.59749 69.4482 5.64307 69.3457C5.69027 69.2415 5.71387 69.1146 5.71387 68.9648V66.3623H6.15332V68.9648C6.15332 69.196 6.111 69.3929 6.02637 69.5557C5.94173 69.7168 5.8221 69.8397 5.66748 69.9243C5.51286 70.0073 5.32975 70.0488 5.11816 70.0488ZM7.54492 70.0635C7.3724 70.0635 7.21533 70.0309 7.07373 69.9658C6.93213 69.8991 6.81982 69.8031 6.73682 69.6777C6.65381 69.5524 6.6123 69.401 6.6123 69.2236C6.6123 69.0674 6.64323 68.9412 6.70508 68.8452C6.76693 68.7476 6.84912 68.6711 6.95166 68.6157C7.05583 68.5588 7.16976 68.5164 7.29346 68.4888C7.41878 68.4611 7.54492 68.4391 7.67188 68.4229C7.83789 68.4017 7.97217 68.3854 8.07471 68.374C8.17887 68.3626 8.25456 68.3431 8.30176 68.3154C8.35059 68.2878 8.375 68.2406 8.375 68.1738V68.1592C8.375 67.985 8.32699 67.8499 8.23096 67.7539C8.13656 67.6562 7.99251 67.6074 7.79883 67.6074C7.60026 67.6074 7.44401 67.6514 7.33008 67.7393C7.21615 67.8255 7.13639 67.9183 7.09082 68.0176L6.69043 67.876C6.76204 67.71 6.85726 67.5806 6.97607 67.4878C7.09652 67.395 7.22673 67.3299 7.3667 67.2925C7.5083 67.255 7.64746 67.2363 7.78418 67.2363C7.87207 67.2363 7.97298 67.2469 8.08691 67.2681C8.20085 67.2876 8.31152 67.3299 8.41895 67.395C8.52799 67.4585 8.61751 67.5553 8.6875 67.6855C8.75911 67.8141 8.79492 67.9867 8.79492 68.2031V70H8.375V69.6289H8.35547C8.3278 69.6875 8.2806 69.751 8.21387 69.8193C8.14714 69.8861 8.05843 69.9438 7.94775 69.9927C7.8387 70.0399 7.70443 70.0635 7.54492 70.0635ZM7.6084 69.6875C7.77441 69.6875 7.91439 69.6549 8.02832 69.5898C8.14225 69.5247 8.22852 69.4409 8.28711 69.3384C8.3457 69.2342 8.375 69.126 8.375 69.0137V68.6279C8.3571 68.6491 8.31803 68.6686 8.25781 68.6865C8.19922 68.7028 8.13086 68.7174 8.05273 68.7305C7.97624 68.7435 7.90137 68.7549 7.82812 68.7646C7.75488 68.7728 7.69629 68.7793 7.65234 68.7842C7.54329 68.7988 7.44157 68.8224 7.34717 68.855C7.25277 68.8859 7.17627 68.9323 7.11768 68.9941C7.06071 69.056 7.03223 69.1406 7.03223 69.248C7.03223 69.3929 7.08594 69.5028 7.19336 69.5776C7.30241 69.6509 7.44076 69.6875 7.6084 69.6875ZM11.0508 68.8867V67.2705H11.4658V70H11.0508V69.5361H11.0215C10.9564 69.6745 10.8563 69.7925 10.7212 69.8901C10.5877 69.9878 10.4176 70.0358 10.2109 70.0342C10.04 70.0342 9.88867 69.9976 9.75684 69.9243C9.625 69.8494 9.52083 69.7355 9.44434 69.5825C9.36947 69.4295 9.33203 69.2367 9.33203 69.0039V67.2705H9.74707V68.9795C9.74707 69.1764 9.80322 69.3343 9.91553 69.4531C10.0295 69.5719 10.1735 69.6305 10.3477 69.6289C10.4518 69.6289 10.5576 69.6029 10.665 69.5508C10.7741 69.4971 10.8652 69.4157 10.9385 69.3066C11.0133 69.196 11.0508 69.056 11.0508 68.8867ZM12.418 68.3594V70H12.0029V67.2705H12.4033V67.7002H12.4424C12.5059 67.5602 12.6027 67.4479 12.7329 67.3633C12.8631 67.2786 13.0316 67.2363 13.2383 67.2363C13.4222 67.2363 13.5833 67.2738 13.7217 67.3486C13.86 67.4235 13.9674 67.5374 14.0439 67.6904C14.1221 67.8418 14.1611 68.0339 14.1611 68.2666V70H13.7461V68.2959C13.7461 68.0827 13.6899 67.9159 13.5776 67.7954C13.4653 67.6733 13.3123 67.6123 13.1187 67.6123C12.9852 67.6123 12.8656 67.6416 12.7598 67.7002C12.654 67.7588 12.5701 67.8434 12.5083 67.9541C12.4481 68.0648 12.418 68.1999 12.418 68.3594ZM15.8408 70.0586C15.5788 70.0586 15.3517 70 15.1597 69.8828C14.9692 69.7656 14.8228 69.6021 14.7202 69.3921C14.6177 69.1805 14.5664 68.9355 14.5664 68.6572C14.5664 68.3773 14.6169 68.1307 14.7178 67.9175C14.8187 67.7043 14.9603 67.5374 15.1426 67.417C15.3265 67.2965 15.5413 67.2363 15.7871 67.2363C15.9287 67.2363 16.0695 67.2599 16.2095 67.3071C16.3494 67.3543 16.4764 67.4308 16.5903 67.5366C16.7059 67.6424 16.7979 67.7824 16.8662 67.9565C16.9346 68.1307 16.9688 68.3447 16.9688 68.5986V68.7793H14.8643V68.418H16.7417L16.5488 68.5547C16.5488 68.3724 16.5203 68.2104 16.4634 68.0688C16.4064 67.9272 16.321 67.8158 16.207 67.7344C16.0947 67.653 15.9548 67.6123 15.7871 67.6123C15.6195 67.6123 15.4754 67.6538 15.355 67.7368C15.2362 67.8182 15.145 67.9248 15.0815 68.0566C15.0181 68.1885 14.9863 68.3301 14.9863 68.4814V68.7207C14.9863 68.9274 15.0221 69.1024 15.0938 69.2456C15.1654 69.3888 15.2655 69.4979 15.394 69.5728C15.5226 69.646 15.6715 69.6826 15.8408 69.6826C15.9499 69.6826 16.0492 69.6672 16.1387 69.6362C16.2282 69.6037 16.3055 69.5557 16.3706 69.4922C16.4357 69.4271 16.4854 69.3473 16.5195 69.2529L16.9248 69.3701C16.8825 69.5068 16.8109 69.6273 16.71 69.7314C16.6107 69.834 16.487 69.9146 16.3389 69.9731C16.1908 70.0301 16.0247 70.0586 15.8408 70.0586ZM5.62109 76L6.22168 72.3623H6.57324L5.97754 76H5.62109ZM3.96582 74.9893L4.02441 74.6377H6.73926L6.68066 74.9893H3.96582ZM4.34668 76L4.94238 72.3623H5.29395L4.69824 76H4.34668ZM4.18066 73.7295L4.23926 73.373H6.94922L6.89551 73.7295H4.18066ZM7.24219 76V72.3623H9.4248V72.7529H7.68164V74.0225H9.25879V74.4131H7.68164V76H7.24219ZM9.94238 76V72.3623H12.125V72.7529H10.3818V74.0225H11.959V74.4131H10.3818V76H9.94238ZM12.6426 76V72.3623H14.8252V72.7529H13.082V74.0225H14.6592V74.4131H13.082V76H12.6426ZM16.8076 76.0488C16.4984 76.0488 16.2225 75.9731 15.98 75.8218C15.7375 75.6704 15.547 75.4556 15.4087 75.1772C15.2703 74.8973 15.2012 74.5661 15.2012 74.1836C15.2012 73.7995 15.2703 73.4674 15.4087 73.1875C15.547 72.9076 15.7375 72.6919 15.98 72.5405C16.2225 72.3892 16.4984 72.3135 16.8076 72.3135C16.9899 72.3135 17.1616 72.3403 17.3228 72.394C17.4855 72.4478 17.632 72.5259 17.7622 72.6284C17.8924 72.7293 18.0007 72.8538 18.0869 73.002C18.1748 73.1484 18.235 73.3145 18.2676 73.5H17.8281C17.8021 73.373 17.7565 73.2616 17.6914 73.1655C17.6279 73.0695 17.5498 72.9889 17.457 72.9238C17.3659 72.8571 17.265 72.8075 17.1543 72.7749C17.0436 72.7407 16.9281 72.7236 16.8076 72.7236C16.5879 72.7236 16.3885 72.7798 16.2095 72.8921C16.0304 73.0028 15.888 73.1672 15.7822 73.3853C15.6781 73.6017 15.626 73.8678 15.626 74.1836C15.626 74.4977 15.6781 74.763 15.7822 74.9795C15.888 75.196 16.0304 75.3604 16.2095 75.4727C16.3885 75.5833 16.5879 75.6387 16.8076 75.6387C16.9281 75.6387 17.0436 75.6224 17.1543 75.5898C17.265 75.5557 17.3659 75.506 17.457 75.4409C17.5498 75.3742 17.6279 75.2928 17.6914 75.1968C17.7565 75.1007 17.8021 74.9893 17.8281 74.8623H18.2676C18.235 75.0495 18.1748 75.2163 18.0869 75.3628C18.0007 75.5093 17.8924 75.6338 17.7622 75.7363C17.632 75.8372 17.4855 75.9146 17.3228 75.9683C17.1616 76.022 16.9899 76.0488 16.8076 76.0488ZM19.8203 76.0488C19.612 76.0488 19.424 76.0081 19.2563 75.9268C19.0903 75.8438 18.9569 75.7298 18.856 75.585C18.755 75.4401 18.7005 75.2757 18.6924 75.0918H19.1172C19.1335 75.2546 19.2075 75.3896 19.3394 75.4971C19.4728 75.6045 19.6331 75.6582 19.8203 75.6582C19.9701 75.6582 20.1027 75.6232 20.2183 75.5532C20.3338 75.4832 20.425 75.3872 20.4917 75.2651C20.5584 75.1431 20.5918 75.0039 20.5918 74.8477C20.5918 74.6898 20.5568 74.5482 20.4868 74.4229C20.4185 74.2975 20.3241 74.1991 20.2036 74.1274C20.0832 74.0542 19.9456 74.0176 19.791 74.0176C19.6787 74.0176 19.564 74.0355 19.4468 74.0713C19.3312 74.1055 19.236 74.1494 19.1611 74.2031L18.7461 74.1543L18.9658 72.3623H20.8555V72.7529H19.3369L19.21 73.8271H19.2295C19.3044 73.7669 19.3979 73.7181 19.5103 73.6807C19.6226 73.6416 19.7406 73.6221 19.8643 73.6221C20.0872 73.6221 20.2858 73.675 20.46 73.7808C20.6341 73.8866 20.7708 74.0314 20.8701 74.2153C20.971 74.3976 21.0215 74.6068 21.0215 74.8428C21.0215 75.0739 20.9694 75.2806 20.8652 75.4629C20.7611 75.6452 20.6187 75.7884 20.438 75.8926C20.2573 75.9967 20.0514 76.0488 19.8203 76.0488ZM22.6475 76.0488C22.4993 76.0488 22.3504 76.022 22.2007 75.9683C22.0509 75.9129 21.9142 75.821 21.7905 75.6924C21.6685 75.5622 21.57 75.3856 21.4951 75.1626C21.4202 74.9396 21.3828 74.6605 21.3828 74.3252C21.3828 74.0029 21.4129 73.7173 21.4731 73.4683C21.535 73.2192 21.6229 73.0093 21.7368 72.8384C21.8524 72.6659 21.9915 72.5356 22.1543 72.4478C22.3171 72.3582 22.501 72.3135 22.7061 72.3135C22.9095 72.3135 23.0902 72.3542 23.248 72.4355C23.4076 72.5169 23.5378 72.63 23.6387 72.7749C23.7396 72.9181 23.8047 73.0833 23.834 73.2705H23.4043C23.3636 73.1077 23.2847 72.9727 23.1675 72.8652C23.0519 72.7578 22.8981 72.7041 22.7061 72.7041C22.4245 72.7041 22.2023 72.827 22.0396 73.0728C21.8784 73.3169 21.7979 73.6611 21.7979 74.1055H21.8271C21.8939 74.0046 21.9728 73.9183 22.064 73.8467C22.1551 73.7734 22.256 73.7181 22.3667 73.6807C22.4774 73.6416 22.5954 73.6221 22.7207 73.6221C22.929 73.6221 23.1195 73.6742 23.292 73.7783C23.4645 73.8809 23.6029 74.0233 23.707 74.2056C23.8112 74.3862 23.8633 74.5938 23.8633 74.8281C23.8633 75.0527 23.8128 75.2578 23.7119 75.4434C23.6126 75.6273 23.4718 75.7746 23.2896 75.8853C23.1073 75.9943 22.8932 76.0488 22.6475 76.0488ZM22.6475 75.6582C22.7972 75.6582 22.9315 75.6216 23.0503 75.5483C23.1691 75.4735 23.2635 75.3734 23.3335 75.248C23.4035 75.1211 23.4385 74.9811 23.4385 74.8281C23.4385 74.6768 23.4043 74.54 23.3359 74.418C23.2692 74.2943 23.1772 74.1958 23.0601 74.1226C22.9445 74.0493 22.8118 74.0127 22.6621 74.0127C22.5124 74.0127 22.3765 74.0509 22.2544 74.1274C22.134 74.2039 22.0379 74.3049 21.9663 74.4302C21.8963 74.5539 21.8613 74.6882 21.8613 74.833C21.8613 74.9779 21.8955 75.1138 21.9639 75.2407C22.0322 75.366 22.125 75.467 22.2422 75.5435C22.361 75.62 22.4961 75.6582 22.6475 75.6582Z" fill="black"/>
<path d="M64.4736 66.3623L65.5527 69.4238H65.5967L66.6758 66.3623H67.1348L65.8018 70H65.3477L64.0098 66.3623H64.4736ZM67.4131 70V67.2705H67.8281V70H67.4131ZM67.623 66.8164C67.5417 66.8164 67.4717 66.7887 67.4131 66.7334C67.3545 66.6781 67.3252 66.6113 67.3252 66.5332C67.3252 66.4551 67.3545 66.3883 67.4131 66.333C67.4717 66.2777 67.5417 66.25 67.623 66.25C67.7044 66.25 67.7744 66.2777 67.833 66.333C67.8916 66.3883 67.9209 66.4551 67.9209 66.5332C67.9209 66.6113 67.8916 66.6781 67.833 66.7334C67.7744 66.7887 67.7044 66.8164 67.623 66.8164ZM69.4688 70.0586C69.223 70.0586 69.0073 70 68.8218 69.8828C68.6362 69.7656 68.4914 69.6012 68.3872 69.3896C68.2847 69.1781 68.2334 68.9323 68.2334 68.6523C68.2334 68.3675 68.2847 68.1193 68.3872 67.9077C68.4914 67.6945 68.6362 67.5293 68.8218 67.4121C69.0073 67.2949 69.223 67.2363 69.4688 67.2363C69.7161 67.2363 69.9326 67.2949 70.1182 67.4121C70.3037 67.5293 70.4486 67.6945 70.5527 67.9077C70.6569 68.1193 70.709 68.3675 70.709 68.6523C70.709 68.9323 70.6569 69.1781 70.5527 69.3896C70.4486 69.6012 70.3037 69.7656 70.1182 69.8828C69.9326 70 69.7161 70.0586 69.4688 70.0586ZM69.4688 69.6826C69.6576 69.6826 69.8122 69.6346 69.9326 69.5386C70.0531 69.4425 70.1426 69.3164 70.2012 69.1602C70.2598 69.0023 70.2891 68.833 70.2891 68.6523C70.2891 68.4684 70.2598 68.2975 70.2012 68.1396C70.1426 67.9818 70.0531 67.8548 69.9326 67.7588C69.8122 67.6611 69.6576 67.6123 69.4688 67.6123C69.2832 67.6123 69.1302 67.6611 69.0098 67.7588C68.8893 67.8548 68.7998 67.9818 68.7412 68.1396C68.6826 68.2975 68.6533 68.4684 68.6533 68.6523C68.6533 68.833 68.6826 69.0023 68.7412 69.1602C68.7998 69.3164 68.8893 69.4425 69.0098 69.5386C69.1302 69.6346 69.2832 69.6826 69.4688 69.6826ZM71.5293 66.3623V70H71.1143V66.3623H71.5293ZM73.209 70.0586C72.9469 70.0586 72.7199 70 72.5278 69.8828C72.3374 69.7656 72.1909 69.6021 72.0884 69.3921C71.9858 69.1805 71.9346 68.9355 71.9346 68.6572C71.9346 68.3773 71.985 68.1307 72.0859 67.9175C72.1868 67.7043 72.3285 67.5374 72.5107 67.417C72.6947 67.2965 72.9095 67.2363 73.1553 67.2363C73.2969 67.2363 73.4377 67.2599 73.5776 67.3071C73.7176 67.3543 73.8446 67.4308 73.9585 67.5366C74.0741 67.6424 74.166 67.7824 74.2344 67.9565C74.3027 68.1307 74.3369 68.3447 74.3369 68.5986V68.7793H72.2324V68.418H74.1099L73.917 68.5547C73.917 68.3724 73.8885 68.2104 73.8315 68.0688C73.7746 67.9272 73.6891 67.8158 73.5752 67.7344C73.4629 67.653 73.3229 67.6123 73.1553 67.6123C72.9876 67.6123 72.8436 67.6538 72.7231 67.7368C72.6043 67.8182 72.5132 67.9248 72.4497 68.0566C72.3862 68.1885 72.3545 68.3301 72.3545 68.4814V68.7207C72.3545 68.9274 72.3903 69.1024 72.4619 69.2456C72.5335 69.3888 72.6336 69.4979 72.7622 69.5728C72.8908 69.646 73.0397 69.6826 73.209 69.6826C73.318 69.6826 73.4173 69.6672 73.5068 69.6362C73.5964 69.6037 73.6737 69.5557 73.7388 69.4922C73.8039 69.4271 73.8535 69.3473 73.8877 69.2529L74.293 69.3701C74.2507 69.5068 74.179 69.6273 74.0781 69.7314C73.9788 69.834 73.8551 69.9146 73.707 69.9731C73.5589 70.0301 73.3929 70.0586 73.209 70.0586ZM75.9141 67.2705V67.627H74.5029V67.2705H75.9141ZM74.9131 66.6211H75.3281V69.2188C75.3281 69.3604 75.3574 69.4645 75.416 69.5312C75.4746 69.5964 75.5674 69.6289 75.6943 69.6289C75.722 69.6289 75.7505 69.6273 75.7798 69.624C75.8107 69.6208 75.8441 69.6159 75.8799 69.6094L75.9678 69.9854C75.9287 70 75.8807 70.0114 75.8237 70.0195C75.7684 70.0293 75.7122 70.0342 75.6553 70.0342C75.4355 70.0342 75.2565 69.9691 75.1182 69.8389C74.9814 69.7087 74.9131 69.5394 74.9131 69.3311V66.6211ZM65.6211 76L66.2217 72.3623H66.5732L65.9775 76H65.6211ZM63.9658 74.9893L64.0244 74.6377H66.7393L66.6807 74.9893H63.9658ZM64.3467 76L64.9424 72.3623H65.2939L64.6982 76H64.3467ZM64.1807 73.7295L64.2393 73.373H66.9492L66.8955 73.7295H64.1807ZM68.3652 76H67.4912V75.6094H68.3359C68.637 75.6094 68.8861 75.5516 69.083 75.436C69.2816 75.3205 69.4297 75.1553 69.5273 74.9404C69.625 74.7256 69.6738 74.4701 69.6738 74.1738C69.6738 73.8809 69.6258 73.6286 69.5298 73.417C69.4338 73.2038 69.2897 73.0402 69.0977 72.9263C68.9072 72.8107 68.6696 72.7529 68.3848 72.7529H67.4717V72.3623H68.4141C68.7673 72.3623 69.0692 72.4347 69.3198 72.5796C69.5721 72.7244 69.765 72.9328 69.8984 73.2046C70.0319 73.4748 70.0986 73.7979 70.0986 74.1738C70.0986 74.5531 70.0311 74.8794 69.896 75.1528C69.7609 75.4246 69.564 75.6338 69.3052 75.7803C69.048 75.9268 68.7347 76 68.3652 76ZM67.6816 72.3623V76H67.2422V72.3623H67.6816ZM71.6758 76.0488C71.4674 76.0488 71.2795 76.0081 71.1118 75.9268C70.9458 75.8438 70.8123 75.7298 70.7114 75.585C70.6105 75.4401 70.556 75.2757 70.5479 75.0918H70.9727C70.9889 75.2546 71.063 75.3896 71.1948 75.4971C71.3283 75.6045 71.4886 75.6582 71.6758 75.6582C71.8255 75.6582 71.9582 75.6232 72.0737 75.5532C72.1893 75.4832 72.2804 75.3872 72.3472 75.2651C72.4139 75.1431 72.4473 75.0039 72.4473 74.8477C72.4473 74.6898 72.4123 74.5482 72.3423 74.4229C72.2739 74.2975 72.1795 74.1991 72.0591 74.1274C71.9386 74.0542 71.8011 74.0176 71.6465 74.0176C71.5342 74.0176 71.4194 74.0355 71.3022 74.0713C71.1867 74.1055 71.0915 74.1494 71.0166 74.2031L70.6016 74.1543L70.8213 72.3623H72.7109V72.7529H71.1924L71.0654 73.8271H71.085C71.1598 73.7669 71.2534 73.7181 71.3657 73.6807C71.478 73.6416 71.596 73.6221 71.7197 73.6221C71.9427 73.6221 72.1413 73.675 72.3154 73.7808C72.4896 73.8866 72.6263 74.0314 72.7256 74.2153C72.8265 74.3976 72.877 74.6068 72.877 74.8428C72.877 75.0739 72.8249 75.2806 72.7207 75.4629C72.6165 75.6452 72.4741 75.7884 72.2935 75.8926C72.1128 75.9967 71.9069 76.0488 71.6758 76.0488ZM74.4541 72.3135C74.6038 72.3151 74.7528 72.3436 74.9009 72.3989C75.0506 72.4543 75.1873 72.5462 75.311 72.6748C75.4347 72.8034 75.5332 72.9784 75.6064 73.1997C75.6813 73.4211 75.7188 73.6986 75.7188 74.0322C75.7188 74.3561 75.6886 74.6434 75.6284 74.894C75.5682 75.1431 75.4803 75.3538 75.3647 75.5264C75.2508 75.6973 75.1125 75.8275 74.9497 75.917C74.7869 76.0049 74.6038 76.0488 74.4004 76.0488C74.1969 76.0488 74.0146 76.0081 73.8535 75.9268C73.694 75.8454 73.5638 75.7323 73.4629 75.5874C73.362 75.4425 73.2969 75.2741 73.2676 75.082H73.7021C73.7412 75.2497 73.8193 75.388 73.9365 75.4971C74.0537 75.6045 74.2083 75.6582 74.4004 75.6582C74.6803 75.6582 74.9009 75.5361 75.062 75.292C75.2248 75.0462 75.307 74.6995 75.3086 74.252H75.2793C75.2126 74.3512 75.1336 74.4375 75.0425 74.5107C74.9513 74.5824 74.8504 74.6377 74.7397 74.6768C74.6291 74.7158 74.5111 74.7354 74.3857 74.7354C74.1774 74.7354 73.9862 74.6841 73.812 74.5815C73.6379 74.4774 73.4987 74.335 73.3945 74.1543C73.292 73.972 73.2399 73.7637 73.2383 73.5293C73.2399 73.3063 73.2904 73.1029 73.3896 72.9189C73.4906 72.7334 73.6313 72.5853 73.812 72.4746C73.9943 72.3639 74.2083 72.3102 74.4541 72.3135ZM74.4541 72.7041C74.306 72.7041 74.1717 72.7415 74.0513 72.8164C73.9325 72.8896 73.8389 72.9889 73.7705 73.1143C73.7021 73.238 73.668 73.3763 73.668 73.5293C73.668 73.6807 73.7005 73.8182 73.7656 73.9419C73.8324 74.0656 73.9243 74.1641 74.0415 74.2373C74.1587 74.3089 74.2913 74.3447 74.4395 74.3447C74.5892 74.3447 74.7243 74.3065 74.8447 74.23C74.9668 74.1519 75.0636 74.0501 75.1353 73.9248C75.2085 73.7995 75.2451 73.6644 75.2451 73.5195C75.2451 73.3779 75.2109 73.2453 75.1426 73.1216C75.0742 72.9963 74.9806 72.8953 74.8618 72.8188C74.743 72.7424 74.6071 72.7041 74.4541 72.7041ZM77.2959 72.3135C77.4456 72.3151 77.5946 72.3436 77.7427 72.3989C77.8924 72.4543 78.0291 72.5462 78.1528 72.6748C78.2765 72.8034 78.375 72.9784 78.4482 73.1997C78.5231 73.4211 78.5605 73.6986 78.5605 74.0322C78.5605 74.3561 78.5304 74.6434 78.4702 74.894C78.41 75.1431 78.3221 75.3538 78.2065 75.5264C78.0926 75.6973 77.9543 75.8275 77.7915 75.917C77.6287 76.0049 77.4456 76.0488 77.2422 76.0488C77.0387 76.0488 76.8564 76.0081 76.6953 75.9268C76.5358 75.8454 76.4056 75.7323 76.3047 75.5874C76.2038 75.4425 76.1387 75.2741 76.1094 75.082H76.5439C76.583 75.2497 76.6611 75.388 76.7783 75.4971C76.8955 75.6045 77.0501 75.6582 77.2422 75.6582C77.5221 75.6582 77.7427 75.5361 77.9038 75.292C78.0666 75.0462 78.1488 74.6995 78.1504 74.252H78.1211C78.0544 74.3512 77.9754 74.4375 77.8843 74.5107C77.7931 74.5824 77.6922 74.6377 77.5815 74.6768C77.4709 74.7158 77.3529 74.7354 77.2275 74.7354C77.0192 74.7354 76.828 74.6841 76.6538 74.5815C76.4797 74.4774 76.3405 74.335 76.2363 74.1543C76.1338 73.972 76.0817 73.7637 76.0801 73.5293C76.0817 73.3063 76.1322 73.1029 76.2314 72.9189C76.3324 72.7334 76.4731 72.5853 76.6538 72.4746C76.8361 72.3639 77.0501 72.3102 77.2959 72.3135ZM77.2959 72.7041C77.1478 72.7041 77.0135 72.7415 76.8931 72.8164C76.7743 72.8896 76.6807 72.9889 76.6123 73.1143C76.5439 73.238 76.5098 73.3763 76.5098 73.5293C76.5098 73.6807 76.5423 73.8182 76.6074 73.9419C76.6742 74.0656 76.7661 74.1641 76.8833 74.2373C77.0005 74.3089 77.1331 74.3447 77.2812 74.3447C77.431 74.3447 77.5661 74.3065 77.6865 74.23C77.8086 74.1519 77.9054 74.0501 77.9771 73.9248C78.0503 73.7995 78.0869 73.6644 78.0869 73.5195C78.0869 73.3779 78.0527 73.2453 77.9844 73.1216C77.916 72.9963 77.8224 72.8953 77.7036 72.8188C77.5848 72.7424 77.4489 72.7041 77.2959 72.7041ZM79.0635 76V72.3623H81.2461V72.7529H79.5029V74.0225H81.0801V74.4131H79.5029V76H79.0635ZM81.7637 76V72.3623H83.0381C83.2904 72.3623 83.4987 72.4062 83.6631 72.4941C83.8275 72.5804 83.9495 72.6968 84.0293 72.8433C84.1107 72.9897 84.1514 73.1517 84.1514 73.3291C84.1514 73.4854 84.1237 73.6147 84.0684 73.7173C84.013 73.8182 83.9406 73.8988 83.8511 73.959C83.7616 74.0176 83.6647 74.0615 83.5605 74.0908V74.125C83.6729 74.1315 83.7852 74.1706 83.8975 74.2422C84.0098 74.3138 84.1034 74.4155 84.1782 74.5474C84.2547 74.6792 84.293 74.8411 84.293 75.0332C84.293 75.2155 84.2515 75.3799 84.1685 75.5264C84.0854 75.6712 83.9544 75.7868 83.7754 75.873C83.598 75.9577 83.3652 76 83.0771 76H81.7637ZM82.2031 75.6094H83.0771C83.3652 75.6094 83.5695 75.5532 83.6899 75.4409C83.812 75.3286 83.873 75.1927 83.873 75.0332C83.873 74.9095 83.8413 74.7956 83.7778 74.6914C83.716 74.5872 83.6273 74.5034 83.5117 74.4399C83.3962 74.3765 83.2594 74.3447 83.1016 74.3447H82.2031V75.6094ZM82.2031 73.9639H83.0234C83.1553 73.9639 83.2749 73.9378 83.3823 73.8857C83.4897 73.832 83.5744 73.758 83.6362 73.6636C83.6997 73.5675 83.7314 73.4561 83.7314 73.3291C83.7314 73.1696 83.6761 73.0337 83.5654 72.9214C83.4548 72.8091 83.279 72.7529 83.0381 72.7529H82.2031V73.9639Z" fill="black"/>
<path d="M124.322 70V66.3623H125.597C125.849 66.3623 126.057 66.4062 126.222 66.4941C126.386 66.5804 126.508 66.6968 126.588 66.8433C126.669 66.9897 126.71 67.1517 126.71 67.3291C126.71 67.4854 126.682 67.6147 126.627 67.7173C126.572 67.8182 126.499 67.8988 126.41 67.959C126.32 68.0176 126.223 68.0615 126.119 68.0908V68.125C126.231 68.1315 126.344 68.1706 126.456 68.2422C126.568 68.3138 126.662 68.4155 126.737 68.5474C126.813 68.6792 126.852 68.8411 126.852 69.0332C126.852 69.2155 126.81 69.3799 126.727 69.5264C126.644 69.6712 126.513 69.7868 126.334 69.873C126.157 69.9577 125.924 70 125.636 70H124.322ZM124.762 69.6094H125.636C125.924 69.6094 126.128 69.5532 126.249 69.4409C126.371 69.3286 126.432 69.1927 126.432 69.0332C126.432 68.9095 126.4 68.7956 126.336 68.6914C126.275 68.5872 126.186 68.5034 126.07 68.4399C125.955 68.3765 125.818 68.3447 125.66 68.3447H124.762V69.6094ZM124.762 67.9639H125.582C125.714 67.9639 125.833 67.9378 125.941 67.8857C126.048 67.832 126.133 67.758 126.195 67.6636C126.258 67.5675 126.29 67.4561 126.29 67.3291C126.29 67.1696 126.235 67.0337 126.124 66.9214C126.013 66.8091 125.838 66.7529 125.597 66.7529H124.762V67.9639ZM127.701 66.3623V70H127.286V66.3623H127.701ZM129.039 70.0635C128.867 70.0635 128.709 70.0309 128.568 69.9658C128.426 69.8991 128.314 69.8031 128.231 69.6777C128.148 69.5524 128.106 69.401 128.106 69.2236C128.106 69.0674 128.137 68.9412 128.199 68.8452C128.261 68.7476 128.343 68.6711 128.446 68.6157C128.55 68.5588 128.664 68.5164 128.788 68.4888C128.913 68.4611 129.039 68.4391 129.166 68.4229C129.332 68.4017 129.466 68.3854 129.569 68.374C129.673 68.3626 129.749 68.3431 129.796 68.3154C129.845 68.2878 129.869 68.2406 129.869 68.1738V68.1592C129.869 67.985 129.821 67.8499 129.725 67.7539C129.631 67.6562 129.487 67.6074 129.293 67.6074C129.094 67.6074 128.938 67.6514 128.824 67.7393C128.71 67.8255 128.631 67.9183 128.585 68.0176L128.185 67.876C128.256 67.71 128.351 67.5806 128.47 67.4878C128.591 67.395 128.721 67.3299 128.861 67.2925C129.002 67.255 129.142 67.2363 129.278 67.2363C129.366 67.2363 129.467 67.2469 129.581 67.2681C129.695 67.2876 129.806 67.3299 129.913 67.395C130.022 67.4585 130.112 67.5553 130.182 67.6855C130.253 67.8141 130.289 67.9867 130.289 68.2031V70H129.869V69.6289H129.85C129.822 69.6875 129.775 69.751 129.708 69.8193C129.641 69.8861 129.553 69.9438 129.442 69.9927C129.333 70.0399 129.199 70.0635 129.039 70.0635ZM129.103 69.6875C129.269 69.6875 129.409 69.6549 129.522 69.5898C129.636 69.5247 129.723 69.4409 129.781 69.3384C129.84 69.2342 129.869 69.126 129.869 69.0137V68.6279C129.851 68.6491 129.812 68.6686 129.752 68.6865C129.693 68.7028 129.625 68.7174 129.547 68.7305C129.47 68.7435 129.396 68.7549 129.322 68.7646C129.249 68.7728 129.19 68.7793 129.146 68.7842C129.037 68.7988 128.936 68.8224 128.841 68.855C128.747 68.8859 128.67 68.9323 128.612 68.9941C128.555 69.056 128.526 69.1406 128.526 69.248C128.526 69.3929 128.58 69.5028 128.688 69.5776C128.797 69.6509 128.935 69.6875 129.103 69.6875ZM131.241 68.3594V70H130.826V67.2705H131.227V67.7002H131.266C131.329 67.5602 131.426 67.4479 131.556 67.3633C131.686 67.2786 131.855 67.2363 132.062 67.2363C132.245 67.2363 132.407 67.2738 132.545 67.3486C132.683 67.4235 132.791 67.5374 132.867 67.6904C132.945 67.8418 132.984 68.0339 132.984 68.2666V70H132.569V68.2959C132.569 68.0827 132.513 67.9159 132.401 67.7954C132.289 67.6733 132.136 67.6123 131.942 67.6123C131.808 67.6123 131.689 67.6416 131.583 67.7002C131.477 67.7588 131.393 67.8434 131.332 67.9541C131.271 68.0648 131.241 68.1999 131.241 68.3594ZM134.625 70.0586C134.371 70.0586 134.151 69.9984 133.966 69.8779C133.782 69.7559 133.639 69.589 133.539 69.3774C133.439 69.1659 133.39 68.9242 133.39 68.6523C133.39 68.374 133.441 68.1291 133.543 67.9175C133.646 67.7043 133.789 67.5374 133.973 67.417C134.159 67.2965 134.374 67.2363 134.62 67.2363C134.812 67.2363 134.985 67.2721 135.138 67.3438C135.292 67.4137 135.418 67.513 135.516 67.6416C135.615 67.7702 135.676 67.9199 135.699 68.0908H135.279C135.258 68.0078 135.22 67.9297 135.165 67.8564C135.109 67.7832 135.036 67.7246 134.945 67.6807C134.855 67.6351 134.749 67.6123 134.625 67.6123C134.462 67.6123 134.32 67.6546 134.198 67.7393C134.076 67.8239 133.98 67.9435 133.912 68.0981C133.844 68.2511 133.81 68.431 133.81 68.6377C133.81 68.8477 133.843 69.0316 133.91 69.1895C133.976 69.3457 134.071 69.467 134.193 69.5532C134.317 69.6395 134.461 69.6826 134.625 69.6826C134.789 69.6826 134.93 69.6403 135.047 69.5557C135.165 69.4694 135.242 69.3522 135.279 69.2041H135.699C135.676 69.3652 135.618 69.5101 135.523 69.6387C135.431 69.7673 135.308 69.8698 135.155 69.9463C135.003 70.0212 134.827 70.0586 134.625 70.0586ZM125.621 76L126.222 72.3623H126.573L125.978 76H125.621ZM123.966 74.9893L124.024 74.6377H126.739L126.681 74.9893H123.966ZM124.347 76L124.942 72.3623H125.294L124.698 76H124.347ZM124.181 73.7295L124.239 73.373H126.949L126.896 73.7295H124.181ZM127.242 76V72.3623H129.425V72.7529H127.682V74.0225H129.259V74.4131H127.682V76H127.242ZM131.017 76.0488C130.808 76.0488 130.62 76.0081 130.453 75.9268C130.287 75.8438 130.153 75.7298 130.052 75.585C129.951 75.4401 129.897 75.2757 129.889 75.0918H130.313C130.33 75.2546 130.404 75.3896 130.536 75.4971C130.669 75.6045 130.829 75.6582 131.017 75.6582C131.166 75.6582 131.299 75.6232 131.415 75.5532C131.53 75.4832 131.621 75.3872 131.688 75.2651C131.755 75.1431 131.788 75.0039 131.788 74.8477C131.788 74.6898 131.753 74.5482 131.683 74.4229C131.615 74.2975 131.52 74.1991 131.4 74.1274C131.279 74.0542 131.142 74.0176 130.987 74.0176C130.875 74.0176 130.76 74.0355 130.643 74.0713C130.528 74.1055 130.432 74.1494 130.357 74.2031L129.942 74.1543L130.162 72.3623H132.052V72.7529H130.533L130.406 73.8271H130.426C130.501 73.7669 130.594 73.7181 130.707 73.6807C130.819 73.6416 130.937 73.6221 131.061 73.6221C131.284 73.6221 131.482 73.675 131.656 73.7808C131.83 73.8866 131.967 74.0314 132.066 74.2153C132.167 74.3976 132.218 74.6068 132.218 74.8428C132.218 75.0739 132.166 75.2806 132.062 75.4629C131.957 75.6452 131.815 75.7884 131.634 75.8926C131.454 75.9967 131.248 76.0488 131.017 76.0488ZM132.721 76V72.3623H134.903V72.7529H133.16V74.0225H134.737V74.4131H133.16V76H132.721ZM136.495 76.0488C136.287 76.0488 136.099 76.0081 135.931 75.9268C135.765 75.8438 135.632 75.7298 135.531 75.585C135.43 75.4401 135.375 75.2757 135.367 75.0918H135.792C135.808 75.2546 135.882 75.3896 136.014 75.4971C136.148 75.6045 136.308 75.6582 136.495 75.6582C136.645 75.6582 136.778 75.6232 136.893 75.5532C137.009 75.4832 137.1 75.3872 137.167 75.2651C137.233 75.1431 137.267 75.0039 137.267 74.8477C137.267 74.6898 137.232 74.5482 137.162 74.4229C137.093 74.2975 136.999 74.1991 136.878 74.1274C136.758 74.0542 136.62 74.0176 136.466 74.0176C136.354 74.0176 136.239 74.0355 136.122 74.0713C136.006 74.1055 135.911 74.1494 135.836 74.2031L135.421 74.1543L135.641 72.3623H137.53V72.7529H136.012L135.885 73.8271H135.904C135.979 73.7669 136.073 73.7181 136.185 73.6807C136.297 73.6416 136.415 73.6221 136.539 73.6221C136.762 73.6221 136.961 73.675 137.135 73.7808C137.309 73.8866 137.446 74.0314 137.545 74.2153C137.646 74.3976 137.696 74.6068 137.696 74.8428C137.696 75.0739 137.644 75.2806 137.54 75.4629C137.436 75.6452 137.293 75.7884 137.113 75.8926C136.932 75.9967 136.726 76.0488 136.495 76.0488ZM138.199 76V72.3623H140.382V72.7529H138.639V74.0225H140.216V74.4131H138.639V76H138.199ZM141.974 76.0488C141.765 76.0488 141.577 76.0081 141.41 75.9268C141.244 75.8438 141.11 75.7298 141.009 75.585C140.908 75.4401 140.854 75.2757 140.846 75.0918H141.271C141.287 75.2546 141.361 75.3896 141.493 75.4971C141.626 75.6045 141.786 75.6582 141.974 75.6582C142.123 75.6582 142.256 75.6232 142.372 75.5532C142.487 75.4832 142.578 75.3872 142.645 75.2651C142.712 75.1431 142.745 75.0039 142.745 74.8477C142.745 74.6898 142.71 74.5482 142.64 74.4229C142.572 74.2975 142.477 74.1991 142.357 74.1274C142.236 74.0542 142.099 74.0176 141.944 74.0176C141.832 74.0176 141.717 74.0355 141.6 74.0713C141.485 74.1055 141.389 74.1494 141.314 74.2031L140.899 74.1543L141.119 72.3623H143.009V72.7529H141.49L141.363 73.8271H141.383C141.458 73.7669 141.551 73.7181 141.664 73.6807C141.776 73.6416 141.894 73.6221 142.018 73.6221C142.241 73.6221 142.439 73.675 142.613 73.7808C142.787 73.8866 142.924 74.0314 143.023 74.2153C143.124 74.3976 143.175 74.6068 143.175 74.8428C143.175 75.0739 143.123 75.2806 143.019 75.4629C142.914 75.6452 142.772 75.7884 142.591 75.8926C142.411 75.9967 142.205 76.0488 141.974 76.0488Z" fill="black"/>
<path d="M125.79 129.049C125.48 129.049 125.204 128.973 124.962 128.822C124.719 128.67 124.528 128.456 124.388 128.177C124.25 127.897 124.181 127.566 124.181 127.184C124.181 126.799 124.25 126.467 124.388 126.188C124.528 125.908 124.719 125.692 124.962 125.541C125.204 125.389 125.48 125.313 125.79 125.313C126.1 125.313 126.376 125.389 126.617 125.541C126.858 125.692 127.048 125.908 127.186 126.188C127.324 126.467 127.394 126.799 127.394 127.184C127.394 127.566 127.324 127.897 127.186 128.177C127.048 128.456 126.858 128.67 126.617 128.822C126.376 128.973 126.1 129.049 125.79 129.049ZM125.79 128.639C126.009 128.639 126.208 128.583 126.385 128.473C126.564 128.36 126.706 128.196 126.81 127.979C126.916 127.763 126.969 127.498 126.969 127.184C126.969 126.868 126.916 126.602 126.81 126.385C126.706 126.167 126.564 126.003 126.385 125.892C126.208 125.78 126.009 125.724 125.79 125.724C125.57 125.724 125.37 125.78 125.191 125.892C125.012 126.003 124.87 126.167 124.764 126.385C124.658 126.602 124.605 126.868 124.605 127.184C124.605 127.498 124.658 127.763 124.764 127.979C124.87 128.196 125.012 128.36 125.191 128.473C125.37 128.583 125.57 128.639 125.79 128.639ZM127.843 129V126.271H128.243V126.686H128.272C128.323 126.55 128.413 126.441 128.543 126.358C128.675 126.274 128.823 126.231 128.985 126.231C129.016 126.231 129.055 126.232 129.1 126.234C129.146 126.234 129.181 126.235 129.205 126.236V126.661C129.19 126.658 129.158 126.653 129.107 126.646C129.057 126.64 129.003 126.637 128.946 126.637C128.814 126.637 128.696 126.664 128.592 126.72C128.488 126.775 128.406 126.851 128.346 126.947C128.287 127.043 128.258 127.153 128.258 127.276V129H127.843ZM130.27 129.063C130.097 129.063 129.94 129.031 129.798 128.966C129.657 128.899 129.544 128.803 129.461 128.678C129.378 128.552 129.337 128.401 129.337 128.224C129.337 128.067 129.368 127.941 129.43 127.845C129.492 127.748 129.574 127.671 129.676 127.616C129.78 127.559 129.894 127.516 130.018 127.489C130.143 127.461 130.27 127.439 130.396 127.423C130.562 127.402 130.697 127.385 130.799 127.374C130.903 127.363 130.979 127.343 131.026 127.315C131.075 127.288 131.1 127.241 131.1 127.174V127.159C131.1 126.985 131.052 126.85 130.956 126.754C130.861 126.656 130.717 126.607 130.523 126.607C130.325 126.607 130.169 126.651 130.055 126.739C129.941 126.826 129.861 126.918 129.815 127.018L129.415 126.876C129.487 126.71 129.582 126.581 129.701 126.488C129.821 126.395 129.951 126.33 130.091 126.292C130.233 126.255 130.372 126.236 130.509 126.236C130.597 126.236 130.698 126.247 130.812 126.268C130.925 126.288 131.036 126.33 131.144 126.395C131.253 126.458 131.342 126.555 131.412 126.686C131.484 126.814 131.52 126.987 131.52 127.203V129H131.1V128.629H131.08C131.052 128.688 131.005 128.751 130.938 128.819C130.872 128.886 130.783 128.944 130.672 128.993C130.563 129.04 130.429 129.063 130.27 129.063ZM130.333 128.688C130.499 128.688 130.639 128.655 130.753 128.59C130.867 128.525 130.953 128.441 131.012 128.338C131.07 128.234 131.1 128.126 131.1 128.014V127.628C131.082 127.649 131.043 127.669 130.982 127.687C130.924 127.703 130.855 127.717 130.777 127.73C130.701 127.743 130.626 127.755 130.553 127.765C130.479 127.773 130.421 127.779 130.377 127.784C130.268 127.799 130.166 127.822 130.072 127.855C129.977 127.886 129.901 127.932 129.842 127.994C129.785 128.056 129.757 128.141 129.757 128.248C129.757 128.393 129.811 128.503 129.918 128.578C130.027 128.651 130.165 128.688 130.333 128.688ZM132.472 127.359V129H132.057V126.271H132.457V126.7H132.496C132.56 126.56 132.656 126.448 132.787 126.363C132.917 126.279 133.085 126.236 133.292 126.236C133.476 126.236 133.637 126.274 133.775 126.349C133.914 126.424 134.021 126.537 134.098 126.69C134.176 126.842 134.215 127.034 134.215 127.267V129H133.8V127.296C133.8 127.083 133.744 126.916 133.631 126.795C133.519 126.673 133.366 126.612 133.172 126.612C133.039 126.612 132.919 126.642 132.813 126.7C132.708 126.759 132.624 126.843 132.562 126.954C132.502 127.065 132.472 127.2 132.472 127.359ZM135.851 130.079C135.546 130.079 135.305 130.024 135.128 129.913C134.952 129.802 134.822 129.675 134.737 129.532L135.069 129.298C135.107 129.348 135.155 129.405 135.213 129.469C135.272 129.534 135.352 129.59 135.453 129.637C135.554 129.684 135.686 129.708 135.851 129.708C136.07 129.708 136.252 129.655 136.395 129.549C136.54 129.444 136.612 129.277 136.612 129.049V128.497H136.573C136.544 128.546 136.501 128.607 136.444 128.68C136.389 128.752 136.308 128.816 136.202 128.873C136.098 128.928 135.956 128.956 135.777 128.956C135.558 128.956 135.361 128.904 135.187 128.8C135.012 128.696 134.874 128.544 134.771 128.346C134.671 128.147 134.62 127.906 134.62 127.623C134.62 127.343 134.669 127.1 134.767 126.893C134.866 126.685 135.003 126.524 135.179 126.41C135.355 126.294 135.558 126.236 135.787 126.236C135.965 126.236 136.105 126.266 136.209 126.324C136.315 126.383 136.396 126.45 136.451 126.524C136.508 126.598 136.552 126.658 136.583 126.705H136.627V126.271H137.027V129.078C137.027 129.312 136.974 129.503 136.869 129.649C136.764 129.798 136.623 129.906 136.444 129.974C136.266 130.044 136.069 130.079 135.851 130.079ZM135.836 128.58C136.088 128.58 136.281 128.495 136.415 128.324C136.55 128.153 136.617 127.916 136.617 127.613C136.617 127.416 136.588 127.243 136.529 127.093C136.471 126.944 136.383 126.826 136.266 126.742C136.15 126.655 136.007 126.612 135.836 126.612C135.659 126.612 135.51 126.658 135.392 126.749C135.274 126.839 135.187 126.959 135.128 127.11C135.069 127.262 135.04 127.429 135.04 127.613C135.04 127.802 135.069 127.97 135.128 128.116C135.188 128.261 135.278 128.375 135.396 128.458C135.515 128.539 135.662 128.58 135.836 128.58ZM138.707 129.059C138.445 129.059 138.218 129 138.026 128.883C137.835 128.766 137.689 128.602 137.586 128.392C137.484 128.181 137.433 127.936 137.433 127.657C137.433 127.377 137.483 127.131 137.584 126.917C137.685 126.704 137.826 126.537 138.009 126.417C138.193 126.297 138.408 126.236 138.653 126.236C138.795 126.236 138.936 126.26 139.076 126.307C139.216 126.354 139.343 126.431 139.457 126.537C139.572 126.642 139.664 126.782 139.732 126.957C139.801 127.131 139.835 127.345 139.835 127.599V127.779H137.73V127.418H139.608L139.415 127.555C139.415 127.372 139.387 127.21 139.33 127.069C139.273 126.927 139.187 126.816 139.073 126.734C138.961 126.653 138.821 126.612 138.653 126.612C138.486 126.612 138.342 126.654 138.221 126.737C138.102 126.818 138.011 126.925 137.948 127.057C137.884 127.188 137.853 127.33 137.853 127.481V127.721C137.853 127.927 137.888 128.102 137.96 128.246C138.032 128.389 138.132 128.498 138.26 128.573C138.389 128.646 138.538 128.683 138.707 128.683C138.816 128.683 138.915 128.667 139.005 128.636C139.094 128.604 139.172 128.556 139.237 128.492C139.302 128.427 139.352 128.347 139.386 128.253L139.791 128.37C139.749 128.507 139.677 128.627 139.576 128.731C139.477 128.834 139.353 128.915 139.205 128.973C139.057 129.03 138.891 129.059 138.707 129.059ZM125.621 135L126.222 131.362H126.573L125.978 135H125.621ZM123.966 133.989L124.024 133.638H126.739L126.681 133.989H123.966ZM124.347 135L124.942 131.362H125.294L124.698 135H124.347ZM124.181 132.729L124.239 132.373H126.949L126.896 132.729H124.181ZM127.242 135V131.362H129.425V131.753H127.682V133.022H129.259V133.413H127.682V135H127.242ZM129.942 135V131.362H132.125V131.753H130.382V133.022H131.959V133.413H130.382V135H129.942ZM133.766 135.049C133.618 135.049 133.469 135.022 133.319 134.968C133.169 134.913 133.032 134.821 132.909 134.692C132.787 134.562 132.688 134.386 132.613 134.163C132.538 133.94 132.501 133.66 132.501 133.325C132.501 133.003 132.531 132.717 132.591 132.468C132.653 132.219 132.741 132.009 132.855 131.838C132.971 131.666 133.11 131.536 133.272 131.448C133.435 131.358 133.619 131.313 133.824 131.313C134.028 131.313 134.208 131.354 134.366 131.436C134.526 131.517 134.656 131.63 134.757 131.775C134.858 131.918 134.923 132.083 134.952 132.271H134.522C134.482 132.108 134.403 131.973 134.286 131.865C134.17 131.758 134.016 131.704 133.824 131.704C133.543 131.704 133.32 131.827 133.158 132.073C132.997 132.317 132.916 132.661 132.916 133.105H132.945C133.012 133.005 133.091 132.918 133.182 132.847C133.273 132.773 133.374 132.718 133.485 132.681C133.596 132.642 133.714 132.622 133.839 132.622C134.047 132.622 134.238 132.674 134.41 132.778C134.583 132.881 134.721 133.023 134.825 133.206C134.929 133.386 134.981 133.594 134.981 133.828C134.981 134.053 134.931 134.258 134.83 134.443C134.731 134.627 134.59 134.775 134.408 134.885C134.225 134.994 134.011 135.049 133.766 135.049ZM133.766 134.658C133.915 134.658 134.05 134.622 134.168 134.548C134.287 134.473 134.382 134.373 134.452 134.248C134.522 134.121 134.557 133.981 134.557 133.828C134.557 133.677 134.522 133.54 134.454 133.418C134.387 133.294 134.295 133.196 134.178 133.123C134.063 133.049 133.93 133.013 133.78 133.013C133.631 133.013 133.495 133.051 133.373 133.127C133.252 133.204 133.156 133.305 133.084 133.43C133.014 133.554 132.979 133.688 132.979 133.833C132.979 133.978 133.014 134.114 133.082 134.241C133.15 134.366 133.243 134.467 133.36 134.543C133.479 134.62 133.614 134.658 133.766 134.658ZM136.617 131.362V135H136.188V131.826H136.163L135.279 132.417V131.968L136.188 131.362H136.617ZM138.429 135.049C138.193 135.049 137.984 135.009 137.801 134.929C137.619 134.849 137.474 134.738 137.367 134.595C137.259 134.45 137.201 134.282 137.193 134.092H137.638C137.647 134.209 137.687 134.31 137.757 134.395C137.829 134.479 137.922 134.544 138.036 134.59C138.151 134.635 138.279 134.658 138.419 134.658C138.575 134.658 138.714 134.631 138.834 134.578C138.956 134.522 139.051 134.447 139.12 134.351C139.19 134.253 139.225 134.141 139.225 134.014C139.225 133.879 139.191 133.76 139.125 133.657C139.058 133.555 138.96 133.475 138.832 133.418C138.705 133.359 138.549 133.33 138.365 133.33H138.072V132.939H138.365C138.508 132.939 138.635 132.913 138.744 132.861C138.853 132.809 138.938 132.736 139 132.642C139.062 132.547 139.093 132.437 139.093 132.31C139.093 132.186 139.066 132.078 139.012 131.987C138.958 131.896 138.882 131.825 138.783 131.775C138.685 131.724 138.569 131.699 138.434 131.699C138.308 131.699 138.19 131.722 138.08 131.768C137.969 131.813 137.879 131.878 137.809 131.963C137.739 132.048 137.701 132.15 137.696 132.271H137.271C137.278 132.08 137.335 131.913 137.442 131.77C137.55 131.627 137.691 131.515 137.865 131.436C138.041 131.354 138.233 131.313 138.443 131.313C138.668 131.313 138.861 131.359 139.022 131.45C139.183 131.54 139.307 131.659 139.393 131.807C139.479 131.955 139.522 132.114 139.522 132.285C139.522 132.492 139.469 132.667 139.361 132.81C139.256 132.953 139.111 133.053 138.927 133.11V133.14C139.155 133.177 139.333 133.275 139.461 133.433C139.59 133.589 139.654 133.783 139.654 134.014C139.654 134.211 139.601 134.387 139.493 134.543C139.387 134.7 139.242 134.823 139.056 134.915C138.872 135.004 138.663 135.049 138.429 135.049ZM141.344 131.362V135H140.914V131.826H140.89L140.006 132.417V131.968L140.914 131.362H141.344Z" fill="black"/>
<path d="M5.47461 129.063C5.21419 129.063 4.98877 129.022 4.79834 128.939C4.60791 128.854 4.45817 128.737 4.34912 128.587C4.2417 128.436 4.18066 128.261 4.16602 128.062H4.62012C4.63314 128.199 4.67952 128.312 4.75928 128.402C4.84066 128.491 4.94401 128.558 5.06934 128.602C5.19466 128.646 5.32975 128.668 5.47461 128.668C5.64225 128.668 5.79281 128.64 5.92627 128.585C6.06136 128.53 6.16797 128.452 6.24609 128.353C6.32422 128.254 6.36328 128.137 6.36328 128.004C6.36328 127.883 6.3291 127.786 6.26074 127.711C6.19238 127.636 6.10286 127.575 5.99219 127.528C5.88314 127.481 5.76432 127.439 5.63574 127.403L5.19141 127.276C4.90658 127.195 4.68115 127.079 4.51514 126.927C4.35075 126.774 4.26855 126.575 4.26855 126.329C4.26855 126.126 4.32308 125.948 4.43213 125.797C4.54281 125.644 4.69173 125.525 4.87891 125.44C5.06771 125.356 5.27767 125.313 5.50879 125.313C5.74316 125.313 5.9515 125.356 6.13379 125.44C6.31608 125.523 6.46094 125.637 6.56836 125.782C6.67578 125.925 6.73275 126.088 6.73926 126.271H6.30957C6.28841 126.091 6.20215 125.952 6.05078 125.853C5.90104 125.754 5.71549 125.704 5.49414 125.704C5.33464 125.704 5.19466 125.73 5.07422 125.782C4.95378 125.834 4.86019 125.906 4.79346 125.997C4.72673 126.088 4.69336 126.192 4.69336 126.31C4.69336 126.438 4.73324 126.542 4.81299 126.622C4.89274 126.7 4.98714 126.761 5.09619 126.805C5.20687 126.849 5.30697 126.884 5.39648 126.91L5.7627 127.013C5.8571 127.039 5.96208 127.074 6.07764 127.118C6.19482 127.162 6.30713 127.221 6.41455 127.296C6.5236 127.371 6.61312 127.467 6.68311 127.584C6.75309 127.7 6.78809 127.843 6.78809 128.014C6.78809 128.209 6.73682 128.386 6.63428 128.546C6.53174 128.704 6.38281 128.83 6.1875 128.924C5.99219 129.017 5.75456 129.063 5.47461 129.063ZM8.02344 129.063C7.85091 129.063 7.69385 129.031 7.55225 128.966C7.41064 128.899 7.29834 128.803 7.21533 128.678C7.13232 128.552 7.09082 128.401 7.09082 128.224C7.09082 128.067 7.12174 127.941 7.18359 127.845C7.24544 127.748 7.32764 127.671 7.43018 127.616C7.53434 127.559 7.64827 127.516 7.77197 127.489C7.8973 127.461 8.02344 127.439 8.15039 127.423C8.31641 127.402 8.45068 127.385 8.55322 127.374C8.65739 127.363 8.73307 127.343 8.78027 127.315C8.8291 127.288 8.85352 127.241 8.85352 127.174V127.159C8.85352 126.985 8.8055 126.85 8.70947 126.754C8.61507 126.656 8.47103 126.607 8.27734 126.607C8.07878 126.607 7.92253 126.651 7.80859 126.739C7.69466 126.826 7.61491 126.918 7.56934 127.018L7.16895 126.876C7.24056 126.71 7.33577 126.581 7.45459 126.488C7.57503 126.395 7.70524 126.33 7.84521 126.292C7.98682 126.255 8.12598 126.236 8.2627 126.236C8.35059 126.236 8.4515 126.247 8.56543 126.268C8.67936 126.288 8.79004 126.33 8.89746 126.395C9.00651 126.458 9.09603 126.555 9.16602 126.686C9.23763 126.814 9.27344 126.987 9.27344 127.203V129H8.85352V128.629H8.83398C8.80632 128.688 8.75911 128.751 8.69238 128.819C8.62565 128.886 8.53695 128.944 8.42627 128.993C8.31722 129.04 8.18294 129.063 8.02344 129.063ZM8.08691 128.688C8.25293 128.688 8.3929 128.655 8.50684 128.59C8.62077 128.525 8.70703 128.441 8.76562 128.338C8.82422 128.234 8.85352 128.126 8.85352 128.014V127.628C8.83561 127.649 8.79655 127.669 8.73633 127.687C8.67773 127.703 8.60938 127.717 8.53125 127.73C8.45475 127.743 8.37988 127.755 8.30664 127.765C8.2334 127.773 8.1748 127.779 8.13086 127.784C8.02181 127.799 7.92008 127.822 7.82568 127.855C7.73128 127.886 7.65479 127.932 7.59619 127.994C7.53923 128.056 7.51074 128.141 7.51074 128.248C7.51074 128.393 7.56445 128.503 7.67188 128.578C7.78092 128.651 7.91927 128.688 8.08691 128.688ZM11.5293 127.887V126.271H11.9443V129H11.5293V128.536H11.5C11.4349 128.674 11.3348 128.792 11.1997 128.89C11.0662 128.988 10.8962 129.036 10.6895 129.034C10.5186 129.034 10.3672 128.998 10.2354 128.924C10.1035 128.849 9.99935 128.736 9.92285 128.583C9.84798 128.43 9.81055 128.237 9.81055 128.004V126.271H10.2256V127.979C10.2256 128.176 10.2817 128.334 10.394 128.453C10.508 128.572 10.652 128.631 10.8262 128.629C10.9303 128.629 11.0361 128.603 11.1436 128.551C11.2526 128.497 11.3438 128.416 11.417 128.307C11.4919 128.196 11.5293 128.056 11.5293 127.887ZM12.4814 129V126.271H12.8818V126.7H12.9209C12.9779 126.554 13.0698 126.44 13.1968 126.358C13.3237 126.277 13.4759 126.236 13.6533 126.236C13.8324 126.236 13.9813 126.277 14.1001 126.358C14.2205 126.44 14.3141 126.554 14.3809 126.7H14.4102C14.4818 126.559 14.5868 126.446 14.7251 126.363C14.8651 126.279 15.0319 126.236 15.2256 126.236C15.4697 126.236 15.6699 126.313 15.8262 126.466C15.9824 126.617 16.0605 126.853 16.0605 127.174V129H15.6406V127.174C15.6406 126.972 15.5853 126.828 15.4746 126.742C15.3639 126.655 15.2337 126.612 15.084 126.612C14.8936 126.612 14.7454 126.671 14.6396 126.788C14.5355 126.904 14.4834 127.049 14.4834 127.223V129H14.0537V127.13C14.0537 126.975 14.0041 126.851 13.9048 126.756C13.8055 126.66 13.6761 126.612 13.5166 126.612C13.4076 126.612 13.3058 126.642 13.2114 126.7C13.117 126.759 13.0405 126.839 12.9819 126.942C12.925 127.044 12.8965 127.162 12.8965 127.296V129H12.4814ZM17.7012 129.059C17.4554 129.059 17.2397 129 17.0542 128.883C16.8687 128.766 16.7238 128.601 16.6196 128.39C16.5171 128.178 16.4658 127.932 16.4658 127.652C16.4658 127.368 16.5171 127.119 16.6196 126.908C16.7238 126.694 16.8687 126.529 17.0542 126.412C17.2397 126.295 17.4554 126.236 17.7012 126.236C17.9486 126.236 18.165 126.295 18.3506 126.412C18.5361 126.529 18.681 126.694 18.7852 126.908C18.8893 127.119 18.9414 127.368 18.9414 127.652C18.9414 127.932 18.8893 128.178 18.7852 128.39C18.681 128.601 18.5361 128.766 18.3506 128.883C18.165 129 17.9486 129.059 17.7012 129.059ZM17.7012 128.683C17.89 128.683 18.0446 128.635 18.165 128.539C18.2855 128.443 18.375 128.316 18.4336 128.16C18.4922 128.002 18.5215 127.833 18.5215 127.652C18.5215 127.468 18.4922 127.298 18.4336 127.14C18.375 126.982 18.2855 126.855 18.165 126.759C18.0446 126.661 17.89 126.612 17.7012 126.612C17.5156 126.612 17.3626 126.661 17.2422 126.759C17.1217 126.855 17.0322 126.982 16.9736 127.14C16.915 127.298 16.8857 127.468 16.8857 127.652C16.8857 127.833 16.915 128.002 16.9736 128.16C17.0322 128.316 17.1217 128.443 17.2422 128.539C17.3626 128.635 17.5156 128.683 17.7012 128.683ZM19.7617 127.359V129H19.3467V126.271H19.7471V126.7H19.7861C19.8496 126.56 19.9465 126.448 20.0767 126.363C20.2069 126.279 20.3753 126.236 20.582 126.236C20.766 126.236 20.9271 126.274 21.0654 126.349C21.2038 126.424 21.3112 126.537 21.3877 126.69C21.4658 126.842 21.5049 127.034 21.5049 127.267V129H21.0898V127.296C21.0898 127.083 21.0337 126.916 20.9214 126.795C20.8091 126.673 20.6561 126.612 20.4624 126.612C20.3289 126.612 20.2093 126.642 20.1035 126.7C19.9977 126.759 19.9139 126.843 19.8521 126.954C19.7918 127.065 19.7617 127.2 19.7617 127.359ZM5.62109 135L6.22168 131.362H6.57324L5.97754 135H5.62109ZM3.96582 133.989L4.02441 133.638H6.73926L6.68066 133.989H3.96582ZM4.34668 135L4.94238 131.362H5.29395L4.69824 135H4.34668ZM4.18066 132.729L4.23926 132.373H6.94922L6.89551 132.729H4.18066ZM7.24219 135V131.362H9.4248V131.753H7.68164V133.022H9.25879V133.413H7.68164V135H7.24219ZM9.94238 135V131.362H12.125V131.753H10.3818V133.022H11.959V133.413H10.3818V135H9.94238ZM12.6426 135V131.362H13.917C14.1693 131.362 14.3776 131.406 14.542 131.494C14.7064 131.58 14.8285 131.697 14.9082 131.843C14.9896 131.99 15.0303 132.152 15.0303 132.329C15.0303 132.485 15.0026 132.615 14.9473 132.717C14.8919 132.818 14.8195 132.899 14.73 132.959C14.6405 133.018 14.5436 133.062 14.4395 133.091V133.125C14.5518 133.132 14.6641 133.171 14.7764 133.242C14.8887 133.314 14.9823 133.416 15.0571 133.547C15.1336 133.679 15.1719 133.841 15.1719 134.033C15.1719 134.215 15.1304 134.38 15.0474 134.526C14.9644 134.671 14.8333 134.787 14.6543 134.873C14.4769 134.958 14.2441 135 13.9561 135H12.6426ZM13.082 134.609H13.9561C14.2441 134.609 14.4484 134.553 14.5688 134.441C14.6909 134.329 14.752 134.193 14.752 134.033C14.752 133.91 14.7202 133.796 14.6567 133.691C14.5949 133.587 14.5062 133.503 14.3906 133.44C14.2751 133.376 14.1383 133.345 13.9805 133.345H13.082V134.609ZM13.082 132.964H13.9023C14.0342 132.964 14.1538 132.938 14.2612 132.886C14.3687 132.832 14.4533 132.758 14.5151 132.664C14.5786 132.568 14.6104 132.456 14.6104 132.329C14.6104 132.17 14.555 132.034 14.4443 131.921C14.3337 131.809 14.1579 131.753 13.917 131.753H13.082V132.964ZM15.6602 135V131.362H17.8574V131.753H16.0996V132.969H17.7402V133.359H16.0996V134.609H17.8818V135H15.6602ZM19.4883 131.313C19.638 131.315 19.7869 131.344 19.9351 131.399C20.0848 131.454 20.2215 131.546 20.3452 131.675C20.4689 131.803 20.5674 131.978 20.6406 132.2C20.7155 132.421 20.7529 132.699 20.7529 133.032C20.7529 133.356 20.7228 133.643 20.6626 133.894C20.6024 134.143 20.5145 134.354 20.3989 134.526C20.285 134.697 20.1466 134.827 19.9839 134.917C19.8211 135.005 19.638 135.049 19.4346 135.049C19.2311 135.049 19.0488 135.008 18.8877 134.927C18.7282 134.845 18.598 134.732 18.4971 134.587C18.3962 134.443 18.3311 134.274 18.3018 134.082H18.7363C18.7754 134.25 18.8535 134.388 18.9707 134.497C19.0879 134.604 19.2425 134.658 19.4346 134.658C19.7145 134.658 19.9351 134.536 20.0962 134.292C20.259 134.046 20.3411 133.7 20.3428 133.252H20.3135C20.2467 133.351 20.1678 133.438 20.0767 133.511C19.9855 133.582 19.8846 133.638 19.7739 133.677C19.6632 133.716 19.5452 133.735 19.4199 133.735C19.2116 133.735 19.0203 133.684 18.8462 133.582C18.672 133.477 18.5329 133.335 18.4287 133.154C18.3262 132.972 18.2741 132.764 18.2725 132.529C18.2741 132.306 18.3245 132.103 18.4238 131.919C18.5247 131.733 18.6655 131.585 18.8462 131.475C19.0285 131.364 19.2425 131.31 19.4883 131.313ZM19.4883 131.704C19.3402 131.704 19.2059 131.742 19.0854 131.816C18.9666 131.89 18.873 131.989 18.8047 132.114C18.7363 132.238 18.7021 132.376 18.7021 132.529C18.7021 132.681 18.7347 132.818 18.7998 132.942C18.8665 133.066 18.9585 133.164 19.0757 133.237C19.1929 133.309 19.3255 133.345 19.4736 133.345C19.6234 133.345 19.7585 133.306 19.8789 133.23C20.001 133.152 20.0978 133.05 20.1694 132.925C20.2427 132.799 20.2793 132.664 20.2793 132.52C20.2793 132.378 20.2451 132.245 20.1768 132.122C20.1084 131.996 20.0148 131.895 19.896 131.819C19.7772 131.742 19.6413 131.704 19.4883 131.704ZM22.3496 135.049C22.1055 135.049 21.8906 135.006 21.7051 134.919C21.5195 134.832 21.3747 134.711 21.2705 134.558C21.1663 134.405 21.1143 134.23 21.1143 134.033C21.1143 133.88 21.1444 133.739 21.2046 133.608C21.2664 133.477 21.3503 133.367 21.4561 133.279C21.5635 133.191 21.6839 133.135 21.8174 133.11V133.091C21.6432 133.045 21.5041 132.947 21.3999 132.795C21.2974 132.644 21.2461 132.472 21.2461 132.28C21.2461 132.095 21.2933 131.93 21.3877 131.785C21.4821 131.638 21.6123 131.523 21.7783 131.44C21.946 131.356 22.1364 131.313 22.3496 131.313C22.5596 131.313 22.7476 131.356 22.9136 131.44C23.0796 131.523 23.2098 131.638 23.3042 131.785C23.4002 131.93 23.4482 132.095 23.4482 132.28C23.4482 132.472 23.3962 132.644 23.292 132.795C23.1878 132.947 23.0511 133.045 22.8818 133.091V133.11C23.012 133.135 23.13 133.191 23.2358 133.279C23.3433 133.367 23.4279 133.477 23.4897 133.608C23.5532 133.739 23.585 133.88 23.585 134.033C23.585 134.23 23.5321 134.405 23.4263 134.558C23.3221 134.711 23.1772 134.832 22.9917 134.919C22.8062 135.006 22.5921 135.049 22.3496 135.049ZM22.3496 134.658C22.514 134.658 22.6556 134.632 22.7744 134.58C22.8949 134.526 22.9876 134.451 23.0527 134.355C23.1178 134.258 23.1504 134.144 23.1504 134.014C23.1504 133.877 23.1154 133.756 23.0454 133.65C22.9754 133.544 22.8802 133.461 22.7598 133.401C22.6393 133.341 22.5026 133.311 22.3496 133.311C22.1934 133.311 22.0542 133.341 21.9321 133.401C21.8117 133.461 21.7165 133.544 21.6465 133.65C21.5781 133.756 21.5439 133.877 21.5439 134.014C21.5439 134.144 21.5765 134.258 21.6416 134.355C21.7067 134.451 21.7995 134.526 21.9199 134.58C22.0404 134.632 22.1836 134.658 22.3496 134.658ZM22.3496 132.935C22.4798 132.935 22.5954 132.909 22.6963 132.856C22.7972 132.804 22.877 132.732 22.9355 132.639C22.9941 132.545 23.0234 132.435 23.0234 132.31C23.0234 132.186 22.995 132.078 22.938 131.987C22.881 131.896 22.8021 131.825 22.7012 131.775C22.6003 131.724 22.4831 131.699 22.3496 131.699C22.2129 131.699 22.0933 131.724 21.9907 131.775C21.8898 131.825 21.8109 131.896 21.7539 131.987C21.6986 132.078 21.6709 132.186 21.6709 132.31C21.6709 132.435 21.6994 132.545 21.7563 132.639C21.8149 132.732 21.8947 132.804 21.9956 132.856C22.0981 132.909 22.2161 132.935 22.3496 132.935Z" fill="black"/>
<path d="M187.213 66.3623V70H186.778L184.801 67.1436H184.762V70H184.322V66.3623H184.747L186.739 69.2236H186.773V66.3623H187.213ZM188.907 70.0586C188.661 70.0586 188.446 70 188.26 69.8828C188.075 69.7656 187.93 69.6012 187.826 69.3896C187.723 69.1781 187.672 68.9323 187.672 68.6523C187.672 68.3675 187.723 68.1193 187.826 67.9077C187.93 67.6945 188.075 67.5293 188.26 67.4121C188.446 67.2949 188.661 67.2363 188.907 67.2363C189.155 67.2363 189.371 67.2949 189.557 67.4121C189.742 67.5293 189.887 67.6945 189.991 67.9077C190.095 68.1193 190.147 68.3675 190.147 68.6523C190.147 68.9323 190.095 69.1781 189.991 69.3896C189.887 69.6012 189.742 69.7656 189.557 69.8828C189.371 70 189.155 70.0586 188.907 70.0586ZM188.907 69.6826C189.096 69.6826 189.251 69.6346 189.371 69.5386C189.492 69.4425 189.581 69.3164 189.64 69.1602C189.698 69.0023 189.728 68.833 189.728 68.6523C189.728 68.4684 189.698 68.2975 189.64 68.1396C189.581 67.9818 189.492 67.8548 189.371 67.7588C189.251 67.6611 189.096 67.6123 188.907 67.6123C188.722 67.6123 188.569 67.6611 188.448 67.7588C188.328 67.8548 188.238 67.9818 188.18 68.1396C188.121 68.2975 188.092 68.4684 188.092 68.6523C188.092 68.833 188.121 69.0023 188.18 69.1602C188.238 69.3164 188.328 69.4425 188.448 69.5386C188.569 69.6346 188.722 69.6826 188.907 69.6826ZM190.553 70V67.2705H190.968V70H190.553ZM190.763 66.8164C190.681 66.8164 190.611 66.7887 190.553 66.7334C190.494 66.6781 190.465 66.6113 190.465 66.5332C190.465 66.4551 190.494 66.3883 190.553 66.333C190.611 66.2777 190.681 66.25 190.763 66.25C190.844 66.25 190.914 66.2777 190.973 66.333C191.031 66.3883 191.061 66.4551 191.061 66.5332C191.061 66.6113 191.031 66.6781 190.973 66.7334C190.914 66.7887 190.844 66.8164 190.763 66.8164ZM191.505 70V67.2705H191.905V67.6855H191.935C191.985 67.5505 192.075 67.4414 192.206 67.3584C192.337 67.2738 192.485 67.2314 192.647 67.2314C192.678 67.2314 192.717 67.2323 192.762 67.2339C192.808 67.2339 192.843 67.2347 192.867 67.2363V67.6611C192.853 67.6579 192.82 67.653 192.77 67.6465C192.719 67.64 192.665 67.6367 192.608 67.6367C192.477 67.6367 192.359 67.6644 192.254 67.7197C192.15 67.7751 192.068 67.8507 192.008 67.9468C191.949 68.0428 191.92 68.1527 191.92 68.2764V70H191.505ZM185.621 76L186.222 72.3623H186.573L185.978 76H185.621ZM183.966 74.9893L184.024 74.6377H186.739L186.681 74.9893H183.966ZM184.347 76L184.942 72.3623H185.294L184.698 76H184.347ZM184.181 73.7295L184.239 73.373H186.949L186.896 73.7295H184.181ZM188.365 76.0488C188.098 76.0488 187.87 75.9756 187.682 75.8291C187.493 75.6826 187.349 75.471 187.25 75.1943C187.15 74.916 187.101 74.5791 187.101 74.1836C187.101 73.7897 187.15 73.4536 187.25 73.1753C187.35 72.8953 187.495 72.6821 187.684 72.5356C187.873 72.3875 188.1 72.3135 188.365 72.3135C188.631 72.3135 188.858 72.3875 189.046 72.5356C189.235 72.6821 189.379 72.8953 189.479 73.1753C189.579 73.4536 189.63 73.7897 189.63 74.1836C189.63 74.5791 189.58 74.916 189.481 75.1943C189.382 75.471 189.238 75.6826 189.049 75.8291C188.862 75.9756 188.634 76.0488 188.365 76.0488ZM188.365 75.6631C188.546 75.6631 188.699 75.6053 188.824 75.4897C188.95 75.3726 189.045 75.2033 189.11 74.9819C189.177 74.7606 189.21 74.4945 189.21 74.1836C189.21 73.8711 189.177 73.6042 189.11 73.3828C189.045 73.1615 188.95 72.9922 188.824 72.875C188.699 72.7578 188.546 72.6992 188.365 72.6992C188.095 72.6992 187.887 72.8294 187.74 73.0898C187.594 73.3503 187.521 73.7148 187.521 74.1836C187.521 74.4945 187.553 74.7606 187.618 74.9819C187.685 75.2033 187.781 75.3726 187.906 75.4897C188.033 75.6053 188.186 75.6631 188.365 75.6631ZM191.256 76.0488C191.108 76.0488 190.959 76.022 190.809 75.9683C190.659 75.9129 190.523 75.821 190.399 75.6924C190.277 75.5622 190.178 75.3856 190.104 75.1626C190.029 74.9396 189.991 74.6605 189.991 74.3252C189.991 74.0029 190.021 73.7173 190.082 73.4683C190.143 73.2192 190.231 73.0093 190.345 72.8384C190.461 72.6659 190.6 72.5356 190.763 72.4478C190.925 72.3582 191.109 72.3135 191.314 72.3135C191.518 72.3135 191.699 72.3542 191.856 72.4355C192.016 72.5169 192.146 72.63 192.247 72.7749C192.348 72.9181 192.413 73.0833 192.442 73.2705H192.013C191.972 73.1077 191.893 72.9727 191.776 72.8652C191.66 72.7578 191.507 72.7041 191.314 72.7041C191.033 72.7041 190.811 72.827 190.648 73.0728C190.487 73.3169 190.406 73.6611 190.406 74.1055H190.436C190.502 74.0046 190.581 73.9183 190.672 73.8467C190.764 73.7734 190.864 73.7181 190.975 73.6807C191.086 73.6416 191.204 73.6221 191.329 73.6221C191.537 73.6221 191.728 73.6742 191.9 73.7783C192.073 73.8809 192.211 74.0233 192.315 74.2056C192.42 74.3862 192.472 74.5938 192.472 74.8281C192.472 75.0527 192.421 75.2578 192.32 75.4434C192.221 75.6273 192.08 75.7746 191.898 75.8853C191.716 75.9943 191.502 76.0488 191.256 76.0488ZM191.256 75.6582C191.406 75.6582 191.54 75.6216 191.659 75.5483C191.778 75.4735 191.872 75.3734 191.942 75.248C192.012 75.1211 192.047 74.9811 192.047 74.8281C192.047 74.6768 192.013 74.54 191.944 74.418C191.878 74.2943 191.786 74.1958 191.668 74.1226C191.553 74.0493 191.42 74.0127 191.271 74.0127C191.121 74.0127 190.985 74.0509 190.863 74.1274C190.742 74.2039 190.646 74.3049 190.575 74.4302C190.505 74.5539 190.47 74.6882 190.47 74.833C190.47 74.9779 190.504 75.1138 190.572 75.2407C190.641 75.366 190.733 75.467 190.851 75.5435C190.969 75.62 191.104 75.6582 191.256 75.6582ZM194.098 76.0488C193.831 76.0488 193.603 75.9756 193.414 75.8291C193.225 75.6826 193.081 75.471 192.982 75.1943C192.883 74.916 192.833 74.5791 192.833 74.1836C192.833 73.7897 192.883 73.4536 192.982 73.1753C193.083 72.8953 193.228 72.6821 193.417 72.5356C193.605 72.3875 193.832 72.3135 194.098 72.3135C194.363 72.3135 194.59 72.3875 194.779 72.5356C194.968 72.6821 195.112 72.8953 195.211 73.1753C195.312 73.4536 195.362 73.7897 195.362 74.1836C195.362 74.5791 195.313 74.916 195.213 75.1943C195.114 75.471 194.97 75.6826 194.781 75.8291C194.594 75.9756 194.366 76.0488 194.098 76.0488ZM194.098 75.6631C194.278 75.6631 194.431 75.6053 194.557 75.4897C194.682 75.3726 194.777 75.2033 194.842 74.9819C194.909 74.7606 194.942 74.4945 194.942 74.1836C194.942 73.8711 194.909 73.6042 194.842 73.3828C194.777 73.1615 194.682 72.9922 194.557 72.875C194.431 72.7578 194.278 72.6992 194.098 72.6992C193.827 72.6992 193.619 72.8294 193.473 73.0898C193.326 73.3503 193.253 73.7148 193.253 74.1836C193.253 74.4945 193.285 74.7606 193.351 74.9819C193.417 75.2033 193.513 75.3726 193.639 75.4897C193.766 75.6053 193.919 75.6631 194.098 75.6631ZM196.988 76H196.114V75.6094H196.959C197.26 75.6094 197.509 75.5516 197.706 75.436C197.905 75.3205 198.053 75.1553 198.15 74.9404C198.248 74.7256 198.297 74.4701 198.297 74.1738C198.297 73.8809 198.249 73.6286 198.153 73.417C198.057 73.2038 197.913 73.0402 197.721 72.9263C197.53 72.8107 197.293 72.7529 197.008 72.7529H196.095V72.3623H197.037C197.39 72.3623 197.692 72.4347 197.943 72.5796C198.195 72.7244 198.388 72.9328 198.521 73.2046C198.655 73.4748 198.722 73.7979 198.722 74.1738C198.722 74.5531 198.654 74.8794 198.519 75.1528C198.384 75.4246 198.187 75.6338 197.928 75.7803C197.671 75.9268 197.358 76 196.988 76ZM196.305 72.3623V76H195.865V72.3623H196.305ZM200.348 76.0488C200.081 76.0488 199.853 75.9756 199.664 75.8291C199.475 75.6826 199.331 75.471 199.232 75.1943C199.133 74.916 199.083 74.5791 199.083 74.1836C199.083 73.7897 199.133 73.4536 199.232 73.1753C199.333 72.8953 199.478 72.6821 199.667 72.5356C199.855 72.3875 200.082 72.3135 200.348 72.3135C200.613 72.3135 200.84 72.3875 201.029 72.5356C201.218 72.6821 201.362 72.8953 201.461 73.1753C201.562 73.4536 201.612 73.7897 201.612 74.1836C201.612 74.5791 201.563 74.916 201.463 75.1943C201.364 75.471 201.22 75.6826 201.031 75.8291C200.844 75.9756 200.616 76.0488 200.348 76.0488ZM200.348 75.6631C200.528 75.6631 200.681 75.6053 200.807 75.4897C200.932 75.3726 201.027 75.2033 201.092 74.9819C201.159 74.7606 201.192 74.4945 201.192 74.1836C201.192 73.8711 201.159 73.6042 201.092 73.3828C201.027 73.1615 200.932 72.9922 200.807 72.875C200.681 72.7578 200.528 72.6992 200.348 72.6992C200.077 72.6992 199.869 72.8294 199.723 73.0898C199.576 73.3503 199.503 73.7148 199.503 74.1836C199.503 74.4945 199.535 74.7606 199.601 74.9819C199.667 75.2033 199.763 75.3726 199.889 75.4897C200.016 75.6053 200.169 75.6631 200.348 75.6631ZM202.115 76V72.3623H204.298V72.7529H202.555V74.0225H204.132V74.4131H202.555V76H202.115Z" fill="#F5F5F5"/>
</g>
<defs>
<clipPath id="clip0_44_103">
<rect width="239" height="141" fill="white"/>
</clipPath>
</defs>
</svg>
